<svg xmlns="http://www.w3.org/2000/svg" xmlns:xlink="http://www.w3.org/1999/xlink" viewBox="0,0,256,256" width="100px" height="100px"><g fill="#ffffff" fill-rule="nonzero" stroke="none" stroke-width="1" stroke-linecap="butt" stroke-linejoin="miter" stroke-miterlimit="10" stroke-dasharray="" stroke-dashoffset="0" font-family="none" font-weight="none" font-size="none" text-anchor="none" style="mix-blend-mode: normal"><g transform="scale(2.56,2.56)"><path d="M50,14c-19.851,0 -36,16.149 -36,36c0,19.851 16.149,36 36,36c19.851,0 36,-16.149 36,-36c0,-19.851 -16.149,-36 -36,-36zM50,16c18.748,0 34,15.252 34,34c0,18.748 -15.252,34 -34,34c-18.748,0 -34,-15.252 -34,-34c0,-18.748 15.252,-34 34,-34zM50,19c-17.094,0 -31,13.907 -31,31c0,17.093 13.906,31 31,31c17.094,0 31,-13.907 31,-31c0,-8.72 -3.70406,-17.08512 -10.16406,-22.95312c-0.203,-0.185 -0.51808,-0.1708 -0.70508,0.0332c-0.186,0.205 -0.1718,0.52103 0.0332,0.70703c6.251,5.678 9.83594,13.77389 9.83594,22.21289c0,16.542 -13.458,30 -30,30c-16.542,0 -30,-13.458 -30,-30c0,-16.542 13.458,-30 30,-30c3.551,0 7.02513,0.61322 10.32813,1.82422c0.259,0.096 0.54758,-0.03687 0.64258,-0.29687c0.095,-0.26 -0.03883,-0.54563 -0.29883,-0.64062c-3.413,-1.251 -7.00388,-1.88672 -10.67187,-1.88672zM63.5293,22.14453c-0.19406,-0.01139 -0.38627,0.09059 -0.47852,0.27734c-0.122,0.248 -0.02044,0.54692 0.22656,0.66992c0.668,0.33 1.3288,0.68745 1.9668,1.06445c0.08,0.048 0.16886,0.07031 0.25586,0.07031c0.171,0 0.33669,-0.08714 0.42969,-0.24414c0.14,-0.238 0.06122,-0.54455 -0.17578,-0.68555c-0.659,-0.391 -1.3442,-0.76056 -2.0332,-1.10156c-0.06125,-0.03 -0.12672,-0.04698 -0.19141,-0.05078zM67.41406,24.52539c-0.126,0.02188 -0.24327,0.09108 -0.32227,0.20508c-0.159,0.226 -0.10491,0.53826 0.12109,0.69727c0.333,0.234 0.66042,0.47175 0.98242,0.71875c0.091,0.069 0.19869,0.10352 0.30469,0.10352c0.15,0 0.29944,-0.06731 0.39844,-0.19531c0.167,-0.22 0.12625,-0.53417 -0.09375,-0.70117c-0.334,-0.255 -0.67258,-0.50509 -1.01758,-0.74609c-0.113,-0.0785 -0.24705,-0.10391 -0.37305,-0.08203zM31.05078,38c-0.66662,0 -1.18049,0.17519 -1.49609,0.53125c-0.3156,0.35606 -0.36914,0.79632 -0.36914,1.15625c0,0.36948 0.08377,0.94939 0.2832,1.79492c0.19943,0.84553 0.5167,1.93004 0.99219,3.19531c0.95097,2.53054 2.53595,5.78328 5.07617,9.25977c3.71136,5.07789 8.6182,8.0625 13.0918,8.0625c1.32893,0 2.1337,-0.14116 2.68359,-0.55469c0.54989,-0.41352 0.65234,-1.06899 0.65234,-1.62305v-4.55469v-0.00195c0.0013,-0.5741 0.08838,-0.90536 0.16211,-1.01758c0.07386,-0.11243 0.11888,-0.14648 0.43945,-0.14648c0.11592,0 0.48321,0.08951 1.0957,0.54492c0.61249,0.45542 1.46506,1.25661 2.59961,2.58008c1.31012,1.5279 2.07774,2.6578 2.75,3.45703c0.67226,0.79923 1.35963,1.31836 2.28516,1.31836h4.01367c0.53592,0 1.00115,-0.11318 1.33789,-0.42187c0.33674,-0.30869 0.46587,-0.75788 0.47852,-1.21484v-0.00195c0.0065,-0.25097 -0.02924,-0.51241 -0.10156,-0.78906l-0.00391,-0.01562l-0.00586,-0.01758c-0.34758,-1.03337 -1.54299,-3.15597 -3.28125,-5.25781v-0.00195c-0.95942,-1.15883 -2.06337,-2.323 -2.42969,-2.84766l-0.00195,-0.00195l-0.00195,-0.00391c-0.25707,-0.35828 -0.29518,-0.51677 -0.28906,-0.63477c0.0063,-0.12766 0.09721,-0.33253 0.31445,-0.70312l0.00391,-0.00781c-0.0015,0.0024 0.00049,-0.00008 0.00586,-0.00977c0.0054,-0.0084 0.01368,-0.0205 0.02734,-0.04102c0.03364,-0.0505 0.08701,-0.1288 0.15625,-0.23047c0.13848,-0.20334 0.33914,-0.49949 0.58398,-0.86133c0.48968,-0.72367 1.15343,-1.71505 1.83398,-2.78516c0.68055,-1.0701 1.37802,-2.21854 1.94336,-3.26367c0.56078,-1.03671 0.98858,-1.94371 1.14258,-2.67187c0.08901,-0.30853 0.08529,-0.58645 0.07617,-0.78125c-0.01356,-0.32731 -0.07589,-0.70815 -0.36133,-1.00977c-0.28535,-0.30141 -0.71993,-0.42773 -1.24414,-0.42773h-4.01367c-0.60776,0 -1.11084,0.19814 -1.47266,0.49805c-0.36181,0.29991 -0.58388,0.67952 -0.73828,1.02734c-0.01286,0.02633 -2.49733,5.10864 -5.30273,8.41602c-0.44396,0.46513 -0.77372,0.74516 -1.00781,0.88867c-0.2133,0.13076 -0.33761,0.15877 -0.48633,0.16406c-0.01026,-0.00333 -0.01594,-0.00323 -0.03125,-0.01367c-0.05342,-0.03643 -0.1322,-0.10651 -0.20508,-0.19922c-0.14576,-0.18542 -0.26953,-0.45243 -0.26953,-0.77539v-7.95117c0,-0.57351 -0.05394,-1.05546 -0.32617,-1.45703c-0.27223,-0.40158 -0.77289,-0.59766 -1.29687,-0.59766h-6.9375c-0.44314,0 -0.83983,0.19346 -1.08789,0.48047c-0.24806,0.28701 -0.36133,0.64586 -0.36133,1.00195c0,0.65585 0.28156,1.06896 0.50586,1.57813c0.22429,0.50917 0.46138,1.2015 0.53711,2.58398v5.52734c0,0.51707 -0.00837,0.65983 -0.00977,0.78125c-0.11084,-0.02328 -0.40702,-0.14663 -0.80469,-0.56836c-0.43113,-0.45721 -0.9366,-1.1607 -1.45703,-2.05664c-1.04086,-1.79188 -2.15163,-4.35337 -3.04102,-7.33398l-0.00195,-0.00586l-0.00195,-0.00586c-0.20394,-0.6226 -0.41553,-1.10927 -0.79102,-1.46875c-0.37549,-0.35948 -0.89391,-0.51367 -1.47461,-0.51367zM31.05078,39h4.36719c0.4323,0 0.61319,0.07161 0.7832,0.23438c0.17001,0.16277 0.34827,0.49428 0.5332,1.05859c0.90891,3.0425 2.03937,5.65807 3.13086,7.53711c0.54657,0.94094 1.08113,1.69855 1.59375,2.24219c0.51262,0.54363 0.99383,0.92773 1.59961,0.92773c0.12304,0 0.23213,0.0192 0.42383,-0.03711c0.1917,-0.05631 0.41419,-0.29954 0.4668,-0.48242c0.10522,-0.36576 0.05078,-0.64213 0.05078,-1.30859v-5.56836v-0.01367c-0.08127,-1.48352 -0.36509,-2.34606 -0.62305,-2.93164c-0.25796,-0.58558 -0.41992,-0.80863 -0.41992,-1.17578c0,-0.13591 0.0487,-0.26616 0.11914,-0.34766c0.07044,-0.0815 0.14922,-0.13477 0.33008,-0.13477h6.9375c0.33301,0 0.39423,0.04828 0.46875,0.1582c0.07452,0.10993 0.1543,0.40599 0.1543,0.89648v7.95117c0,0.57704 0.21744,1.0555 0.48242,1.39258c0.13249,0.16854 0.27631,0.30494 0.42773,0.4082c0.15143,0.10326 0.29616,0.19336 0.54688,0.19336c0.33271,0 0.69732,-0.09689 1.05859,-0.31836c0.36127,-0.22147 0.73812,-0.55515 1.2207,-1.0625l0.00977,-0.00977l0.00781,-0.00977c2.95407,-3.47833 5.45508,-8.65234 5.45508,-8.65234l0.00391,-0.00781l0.00391,-0.00781c0.1186,-0.26717 0.2675,-0.50372 0.46094,-0.66406c0.19343,-0.1603 0.42969,-0.26758 0.83594,-0.26758h4.01367c0.37479,0 0.48297,0.0766 0.51953,0.11523c0.03656,0.03863 0.0765,0.13559 0.08594,0.36328v0.00195c0.0086,0.18329 0.0087,0.3253 -0.03516,0.46875l-0.00586,0.02344l-0.00586,0.02148c-0.10232,0.49644 -0.50374,1.41057 -1.05078,2.42188c-0.54704,1.01131 -1.23526,2.14498 -1.9082,3.20313c-0.67295,1.05815 -1.33167,2.0405 -1.81836,2.75977c-0.24335,0.35963 -0.44253,0.65454 -0.58203,0.85938c-0.06975,0.10242 -0.1238,0.18076 -0.16211,0.23828c-0.01916,0.02876 -0.03492,0.05203 -0.04883,0.07422c-0.0054,0.0086 -0.01205,0.02002 -0.01953,0.0332c-0.0022,0.0039 -0.00306,0.00457 -0.00586,0.00977c-0.0061,0.01121 -0.02896,0.06551 -0.0293,0.06641c-0.00004,0.0001 -0.00551,0.02188 -0.00781,0.0332c-0.19828,0.33968 -0.38614,0.651 -0.40625,1.04883c-0.02185,0.42144 0.15847,0.82655 0.47461,1.26758v0.00195c0.49087,0.70149 1.54972,1.79108 2.47461,2.9082c1.65988,2.00707 2.84548,4.18746 3.09766,4.92773c0.04916,0.19494 0.07172,0.36035 0.06836,0.49023c-0.0084,0.30203 -0.07274,0.42735 -0.15625,0.50391c-0.08351,0.07656 -0.26603,0.16016 -0.66211,0.16016h-4.01367c-0.59548,0 -0.90779,-0.23562 -1.51953,-0.96289c-0.61174,-0.72727 -1.41298,-1.89679 -2.75586,-3.46289c-1.16545,-1.35953 -2.05721,-2.20859 -2.76172,-2.73242c-0.70451,-0.52383 -1.22527,-0.74219 -1.69336,-0.74219c-0.49843,0 -1.004,0.18458 -1.27539,0.59766c-0.27139,0.41307 -0.32511,0.9145 -0.32617,1.56641v4.55664c0,0.46795 -0.02855,0.65279 -0.25391,0.82227c-0.22525,0.16935 -0.83796,0.35547 -2.08203,0.35547c-4.0224,0 -8.71251,-2.76424 -12.28516,-7.65234c-2.48178,-3.39651 -4.02378,-6.56927 -4.94531,-9.02148c-0.46077,-1.22611 -0.7662,-2.2734 -0.95508,-3.07422c-0.18888,-0.80081 -0.25781,-1.38093 -0.25781,-1.56445c0,-0.25407 0.04279,-0.40825 0.11719,-0.49219c0.0744,-0.08394 0.24467,-0.19531 0.74805,-0.19531z"></path></g></g></svg>